<svg width="30" height="30" viewBox="0 0 30 30" fill="none" xmlns="http://www.w3.org/2000/svg">
<rect width="30" height="30" rx="8" fill="#39C3F2"/>
<g clip-path="url(#clip0_704_6636)">
<path d="M17.3038 17.3177C18.7328 17.2924 19.0473 15.3266 17.6988 14.8584L16.1418 16.547C16.3361 17.0044 16.7942 17.3177 17.3038 17.3177Z" fill="white"/>
<path d="M21.9153 14.7665C21.7151 13.5656 21.1525 12.6386 20.2789 12.0599C19.872 12.5015 18.7509 13.7169 18.3278 14.176C19.0085 14.5449 19.4443 15.2594 19.4443 16.0565C19.4491 17.9039 17.2197 18.885 15.8611 17.6375C15.7316 17.9241 15.5499 18.1879 15.321 18.4168C14.4139 19.4002 11.604 19.638 10.4045 19.603C10.3694 18.4006 10.6082 15.592 11.5908 14.6865C12.0922 14.1854 12.7463 13.9284 13.4048 13.9158C14.1254 13.249 15.1247 12.3243 15.8424 11.6601C14.8455 11.9228 13.3853 12.6183 12.94 11.9617C12.7316 11.4698 13.6791 10.3268 12.9315 9.36759C12.3188 8.5983 10.9476 8.7428 10.1727 9.28934C6.39982 11.8943 5.89533 17.6175 9.189 20.8013C13.2211 24.8644 20.2546 23.0237 21.7998 17.5177C21.8837 17.1711 22.1239 16.0351 21.9153 14.7665Z" fill="white"/>
<path d="M15.321 14.6865C15.566 14.9315 15.7568 15.216 15.8875 15.5258C16.3865 14.9853 19.0214 12.1266 19.4589 11.6525L21.7984 9.11524C22.0539 8.83801 22.0607 8.42774 21.8139 8.1807C21.5666 7.93365 21.1557 7.94069 20.8785 8.19711L17.4571 11.3635C16.7142 12.0508 15.2366 13.4188 14.4785 14.1203C14.785 14.2486 15.0719 14.4374 15.321 14.6865Z" fill="white"/>
<path d="M14.2301 14.9722C13.5626 14.6473 12.7538 14.768 12.2125 15.3074C11.6534 15.8017 11.3359 17.683 11.3037 18.7033C12.327 18.67 14.2037 18.3545 14.6993 17.7945C15.0316 17.4622 15.2145 17.0206 15.2145 16.5511C15.2144 16.081 15.0313 15.6394 14.6993 15.3077V15.3074C14.5586 15.1665 14.3998 15.0548 14.2301 14.9722Z" fill="white"/>
</g>
<defs>
<clipPath id="clip0_704_6636">
<rect width="15" height="15" fill="white" transform="translate(7 8)"/>
</clipPath>
</defs>
</svg>
